<?xml version="1.0" encoding="utf-8"?>
<svg xmlns="http://www.w3.org/2000/svg" height="512pt" version="1.1" viewBox="0 0 512 512" width="512pt">
<path d="M 0.00 0.00 L 512.00 0.00 L 512.00 303.27 C 509.37 303.12 507.00 300.61 504.16 301.82 C 503.40 303.61 502.53 305.06 500.28 304.87 C 501.15 302.85 502.97 300.59 501.58 298.35 C 499.35 294.91 495.36 293.35 491.72 291.87 C 491.74 292.70 491.77 294.38 491.79 295.22 C 490.90 294.22 490.02 293.23 489.14 292.24 C 490.10 291.50 491.24 290.94 492.01 289.97 C 491.02 284.64 487.95 279.48 483.04 276.92 C 473.99 272.05 460.87 277.06 458.63 287.45 C 456.77 291.82 462.63 293.25 465.50 294.81 C 465.49 295.79 465.95 297.83 464.20 297.41 C 461.80 294.16 458.04 292.04 453.99 291.80 C 449.71 291.41 446.87 295.31 442.85 295.98 C 444.00 294.18 445.49 292.64 447.15 291.31 C 444.08 289.73 440.81 288.59 437.45 287.82 C 441.46 284.62 444.88 280.25 445.23 274.94 C 447.05 263.09 434.12 252.35 422.75 255.87 C 416.97 257.23 413.38 262.31 411.12 267.44 C 413.47 268.91 415.68 270.60 417.75 272.45 C 416.96 272.95 416.18 273.45 415.40 273.96 C 414.05 270.18 410.28 268.68 406.91 267.19 C 405.40 266.63 403.82 267.38 402.30 267.50 C 400.79 266.37 399.12 265.45 397.17 265.71 C 395.80 264.67 394.45 263.59 393.11 262.52 C 401.02 258.56 401.16 247.13 396.36 240.67 C 392.92 235.88 386.86 233.09 381.00 233.48 C 377.14 233.72 374.10 236.30 371.31 238.69 C 368.58 230.74 366.20 222.68 363.44 214.75 C 363.03 215.46 362.65 216.19 362.29 216.94 C 356.05 229.56 352.09 243.10 347.63 256.41 C 344.29 255.13 340.96 253.80 337.75 252.23 C 340.15 247.92 341.51 242.77 339.93 237.92 C 337.79 230.20 329.73 225.44 322.03 225.23 C 317.53 224.87 313.32 226.73 309.11 227.99 C 302.53 205.49 298.96 182.22 293.14 159.54 C 288.77 135.26 281.29 111.72 274.61 88.03 C 305.18 91.48 335.55 99.47 362.68 114.26 C 374.73 120.90 386.42 128.26 397.21 136.81 C 419.24 153.93 436.91 176.10 450.95 200.07 C 452.72 203.36 454.32 206.74 455.97 210.10 C 455.49 207.89 454.97 205.68 454.17 203.57 C 447.18 186.01 438.09 169.26 426.85 154.05 C 410.50 133.06 390.33 115.02 367.41 101.48 C 350.50 91.09 331.84 83.84 312.85 78.29 C 298.78 74.18 284.18 72.62 269.86 69.72 C 266.98 59.07 263.85 48.48 260.32 38.03 C 258.40 32.28 257.13 26.31 254.83 20.70 C 254.63 21.46 254.25 22.99 254.05 23.76 C 248.05 38.84 243.16 54.41 239.43 70.21 C 233.03 71.40 226.51 71.90 220.16 73.39 C 203.84 77.26 187.44 81.21 172.03 87.97 C 162.52 92.25 152.94 96.48 144.02 101.91 C 132.31 108.45 121.74 116.80 111.89 125.86 C 91.62 143.58 75.79 165.97 64.19 190.17 C 61.32 196.46 57.87 202.59 56.56 209.44 C 62.29 198.56 68.21 187.70 75.85 178.01 C 94.58 153.13 117.91 131.26 145.45 116.46 C 163.02 106.73 181.94 99.54 201.39 94.60 C 212.35 91.55 223.61 89.64 234.94 88.64 C 231.09 102.46 228.27 116.55 224.29 130.34 C 221.93 140.85 219.19 151.27 216.60 161.72 C 211.82 183.66 206.26 205.41 201.21 227.29 C 198.56 238.33 195.99 249.41 192.74 260.29 C 190.00 259.97 187.26 259.73 184.51 259.75 C 186.03 262.30 189.53 261.72 192.04 262.38 C 191.72 263.54 191.44 264.71 191.19 265.90 C 191.20 265.51 191.23 264.74 191.24 264.35 C 189.53 263.38 187.81 262.38 185.94 261.74 C 183.28 261.51 182.44 265.02 179.77 265.02 C 180.50 263.94 181.27 262.89 182.06 261.86 C 176.81 257.87 169.95 257.38 164.15 254.49 C 161.00 240.89 156.03 227.82 151.87 214.52 L 151.19 216.06 C 149.35 220.34 147.67 224.70 146.23 229.14 C 144.19 235.25 141.46 241.13 139.82 247.37 C 136.29 249.46 132.98 251.92 129.30 253.72 C 129.00 250.13 129.04 246.24 126.88 243.17 C 118.61 231.28 100.83 227.86 88.60 235.51 C 78.56 241.08 72.53 253.38 75.45 264.67 C 76.39 268.62 78.49 273.80 83.24 273.96 C 84.13 272.66 85.14 271.45 86.45 270.57 C 85.88 271.83 85.28 273.09 84.66 274.34 C 85.37 275.40 86.07 276.46 86.78 277.52 C 84.28 276.59 81.84 275.11 79.09 275.15 C 76.23 276.28 74.01 278.53 71.58 280.36 C 71.63 281.14 71.73 282.69 71.78 283.47 C 70.73 283.05 69.69 282.64 68.64 282.22 C 69.17 281.57 70.22 280.27 70.74 279.62 C 68.68 278.33 66.53 276.71 63.94 277.07 C 59.59 277.41 55.91 280.06 52.23 282.17 C 52.66 281.58 53.51 280.42 53.94 279.83 C 47.86 278.79 41.15 279.27 35.96 282.88 C 31.45 286.05 27.67 290.66 26.48 296.13 C 25.74 300.86 25.98 305.74 27.12 310.38 C 29.85 310.85 31.90 312.65 33.24 314.99 C 31.93 315.00 30.61 315.02 29.30 315.02 C 29.03 314.33 28.48 312.94 28.21 312.25 C 27.45 312.69 25.92 313.59 25.16 314.04 C 25.65 314.56 26.62 315.59 27.10 316.11 C 26.42 317.16 25.52 317.97 24.23 318.13 C 24.41 316.79 24.60 315.45 24.81 314.11 C 17.56 308.88 7.58 309.58 0.00 313.73 L 0.00 0.00 Z" fill="#7bc0c5" opacity="1.00" stroke="#7bc0c5" stroke-width="0.25"/>
<path d="M 254.83 20.70 C 257.13 26.31 258.40 32.28 260.32 38.03 C 263.85 48.48 266.98 59.07 269.86 69.72 C 271.41 75.83 272.30 82.13 274.61 88.03 C 281.29 111.72 288.77 135.26 293.14 159.54 C 286.37 153.89 281.07 146.72 274.77 140.57 C 273.94 139.47 273.17 138.31 272.40 137.18 C 267.26 147.85 262.09 158.51 257.33 169.35 C 257.07 169.96 256.55 171.17 256.29 171.77 C 249.76 159.50 243.31 147.18 236.35 135.16 C 237.89 123.81 240.46 112.62 242.39 101.33 C 247.48 75.67 251.52 49.79 254.05 23.76 C 254.25 22.99 254.63 21.46 254.83 20.70 Z" fill="#db6e55" opacity="1.00" stroke="#db6e55" stroke-width="0.25"/>
<path d="M 239.43 70.21 C 243.16 54.41 248.05 38.84 254.05 23.76 C 251.52 49.79 247.48 75.67 242.39 101.33 C 240.46 112.62 237.89 123.81 236.35 135.16 C 235.94 139.15 234.84 143.00 234.00 146.91 C 231.92 149.89 228.89 151.95 226.06 154.15 C 222.85 156.60 219.96 159.47 216.60 161.72 C 219.19 151.27 221.93 140.85 224.29 130.34 C 228.27 116.55 231.09 102.46 234.94 88.64 C 236.72 82.57 238.44 76.46 239.43 70.21 Z" fill="#faad82" opacity="1.00" stroke="#faad82" stroke-width="0.25"/>
<path d="M 220.16 73.39 C 226.51 71.90 233.03 71.40 239.43 70.21 C 238.44 76.46 236.72 82.57 234.94 88.64 C 223.61 89.64 212.35 91.55 201.39 94.60 C 181.94 99.54 163.02 106.73 145.45 116.46 C 117.91 131.26 94.58 153.13 75.85 178.01 C 68.21 187.70 62.29 198.56 56.56 209.44 C 57.87 202.59 61.32 196.46 64.19 190.17 C 75.79 165.97 91.62 143.58 111.89 125.86 C 121.74 116.80 132.31 108.45 144.02 101.91 C 152.94 96.48 162.52 92.25 172.03 87.97 C 187.44 81.21 203.84 77.26 220.16 73.39 Z" fill="#fefefe" opacity="1.00" stroke="#fefefe" stroke-width="0.25"/>
<path d="M 269.86 69.72 C 284.18 72.62 298.78 74.18 312.85 78.29 C 331.84 83.84 350.50 91.09 367.41 101.48 C 390.33 115.02 410.50 133.06 426.85 154.05 C 438.09 169.26 447.18 186.01 454.17 203.57 C 454.97 205.68 455.49 207.89 455.97 210.10 C 454.32 206.74 452.72 203.36 450.95 200.07 C 436.91 176.10 419.24 153.93 397.21 136.81 C 386.42 128.26 374.73 120.90 362.68 114.26 C 335.55 99.47 305.18 91.48 274.61 88.03 C 272.30 82.13 271.41 75.83 269.86 69.72 Z" fill="#fefefe" opacity="1.00" stroke="#fefefe" stroke-width="0.25"/>
<path d="M 236.35 135.16 C 243.31 147.18 249.76 159.50 256.29 171.77 C 256.55 171.17 257.07 169.96 257.33 169.35 C 259.13 169.05 260.93 168.67 262.77 168.55 C 264.29 168.27 265.00 170.10 266.35 170.40 C 267.73 169.99 268.76 168.92 269.87 168.06 C 270.34 168.86 270.83 169.66 271.31 170.47 C 273.12 169.18 275.16 168.26 277.33 167.78 C 279.35 178.50 280.82 189.33 283.02 200.02 C 285.31 211.61 286.58 223.36 288.43 235.02 C 289.15 239.24 289.80 243.48 290.41 247.73 C 290.21 249.76 289.92 251.79 289.64 253.83 C 282.72 254.19 275.88 252.83 268.97 252.83 C 257.32 252.82 245.68 252.87 234.04 252.87 C 229.44 252.94 224.83 252.95 220.27 252.34 C 220.02 250.15 219.76 247.96 219.62 245.77 C 223.02 219.09 228.00 192.65 231.47 165.99 C 232.07 159.60 233.11 153.27 234.00 146.91 C 234.84 143.00 235.94 139.15 236.35 135.16 Z" fill="#4f2c2c" opacity="1.00" stroke="#4f2c2c" stroke-width="0.25"/>
<path d="M 257.33 169.35 C 262.09 158.51 267.26 147.85 272.40 137.18 C 273.17 138.31 273.94 139.47 274.77 140.57 C 273.17 149.68 276.16 158.78 277.33 167.78 C 275.16 168.26 273.12 169.18 271.31 170.47 C 270.83 169.66 270.34 168.86 269.87 168.06 C 268.76 168.92 267.73 169.99 266.35 170.40 C 265.00 170.10 264.29 168.27 262.77 168.55 C 260.93 168.67 259.13 169.05 257.33 169.35 Z" fill="#452326" opacity="1.00" stroke="#452326" stroke-width="0.25"/>
<path d="M 274.77 140.57 C 281.07 146.72 286.37 153.89 293.14 159.54 C 298.96 182.22 302.53 205.49 309.11 227.99 C 309.81 230.45 310.41 232.94 311.04 235.42 C 308.81 235.28 308.42 232.64 306.79 231.60 C 304.34 232.32 302.10 231.19 299.83 230.45 C 296.47 231.16 293.25 232.46 289.84 232.95 C 289.49 233.46 288.78 234.50 288.43 235.02 C 286.58 223.36 285.31 211.61 283.02 200.02 C 280.82 189.33 279.35 178.50 277.33 167.78 C 276.16 158.78 273.17 149.68 274.77 140.57 Z" fill="#6c3838" opacity="1.00" stroke="#6c3838" stroke-width="0.25"/>
<path d="M 226.06 154.15 C 228.89 151.95 231.92 149.89 234.00 146.91 C 233.11 153.27 232.07 159.60 231.47 165.99 C 228.00 192.65 223.02 219.09 219.62 245.77 C 218.10 256.08 217.26 266.48 215.69 276.79 C 214.06 283.10 213.62 289.61 212.68 296.03 C 210.99 292.01 206.13 293.18 202.76 293.77 C 199.39 295.76 195.86 297.49 192.56 299.62 C 190.32 301.32 187.36 300.49 184.78 300.45 C 183.80 302.26 183.75 305.47 181.09 305.44 C 182.55 299.75 183.93 294.03 185.30 288.31 C 187.08 280.79 189.68 273.48 191.19 265.90 C 191.44 264.71 191.72 263.54 192.04 262.38 C 192.22 261.85 192.56 260.81 192.74 260.29 C 195.99 249.41 198.56 238.33 201.21 227.29 C 206.26 205.41 211.82 183.66 216.60 161.72 C 219.96 159.47 222.85 156.60 226.06 154.15 Z" fill="#8f4c49" opacity="1.00" stroke="#8f4c49" stroke-width="0.25"/>
<path d="M 362.29 216.94 C 362.65 216.19 363.03 215.46 363.44 214.75 C 366.20 222.68 368.58 230.74 371.31 238.69 C 373.60 245.31 375.10 252.17 377.13 258.88 C 380.51 269.87 384.00 280.83 387.19 291.88 C 387.08 292.43 386.85 293.54 386.73 294.09 C 382.25 291.90 378.34 288.72 375.09 284.96 C 374.49 283.14 373.89 281.31 373.29 279.49 C 369.64 286.80 365.73 293.97 361.92 301.20 C 358.43 294.09 355.87 286.37 351.07 280.01 C 351.78 274.74 353.48 269.67 354.19 264.40 C 355.84 253.46 359.29 242.90 360.69 231.92 C 361.58 226.96 361.54 221.91 362.29 216.94 Z" fill="#da6d53" opacity="1.00" stroke="#da6d53" stroke-width="0.25"/>
<path d="M 146.23 229.14 C 147.67 224.70 149.35 220.34 151.19 216.06 C 150.01 219.25 149.86 222.69 149.46 226.04 C 148.70 233.22 147.71 240.39 146.25 247.47 C 143.95 247.98 141.67 248.60 139.40 249.25 C 139.50 248.78 139.72 247.84 139.82 247.37 C 141.46 241.13 144.19 235.25 146.23 229.14 Z" fill="#fec796" opacity="1.00" stroke="#fec796" stroke-width="0.25"/>
<path d="M 151.19 216.06 L 151.87 214.52 C 156.03 227.82 161.00 240.89 164.15 254.49 C 167.41 266.56 171.02 278.52 174.36 290.56 C 173.59 290.62 172.05 290.74 171.28 290.79 C 168.56 288.90 165.80 287.05 163.34 284.83 C 162.73 283.32 162.08 281.82 161.42 280.34 C 158.07 287.44 155.00 294.69 151.81 301.87 C 148.20 294.28 144.70 286.46 139.24 279.99 C 141.45 269.12 144.43 258.42 146.25 247.47 C 147.71 240.39 148.70 233.22 149.46 226.04 C 149.86 222.69 150.01 219.25 151.19 216.06 Z" fill="#d96c52" opacity="1.00" stroke="#d96c52" stroke-width="0.25"/>
<path d="M 347.63 256.41 C 352.09 243.10 356.05 229.56 362.29 216.94 C 361.54 221.91 361.58 226.96 360.69 231.92 C 359.29 242.90 355.84 253.46 354.19 264.40 C 353.67 263.00 353.10 261.63 352.54 260.25 C 351.62 261.19 350.71 262.14 349.80 263.09 C 349.17 261.29 348.52 259.51 347.96 257.69 C 347.87 257.37 347.71 256.73 347.63 256.41 Z" fill="#ffba8e" opacity="1.00" stroke="#ffba8e" stroke-width="0.25"/>
<path d="M 362.40 223.85 C 362.41 231.07 364.91 237.96 365.36 245.13 C 363.64 247.26 362.71 244.00 362.63 242.54 C 362.08 236.33 362.73 230.08 362.40 223.85 Z" fill="#592125" opacity="1.00" stroke="#592125" stroke-width="0.25"/>
<path d="M 309.11 227.99 C 313.32 226.73 317.53 224.87 322.03 225.23 C 329.73 225.44 337.79 230.20 339.93 237.92 C 341.51 242.77 340.15 247.92 337.75 252.23 C 340.96 253.80 344.29 255.13 347.63 256.41 C 347.71 256.73 347.87 257.37 347.96 257.69 C 346.96 262.71 345.16 267.51 343.74 272.41 C 341.42 279.92 339.75 287.60 337.65 295.17 C 334.54 302.87 333.11 311.10 330.27 318.88 L 329.99 318.53 C 327.81 302.83 323.48 287.54 319.95 272.12 C 317.03 259.87 314.15 247.62 311.04 235.42 C 310.41 232.94 309.81 230.45 309.11 227.99 Z" fill="#fffffe" opacity="1.00" stroke="#fffffe" stroke-width="0.25"/>
<path d="M 289.84 232.95 C 293.25 232.46 296.47 231.16 299.83 230.45 C 302.10 231.19 304.34 232.32 306.79 231.60 C 308.42 232.64 308.81 235.28 311.04 235.42 C 314.15 247.62 317.03 259.87 319.95 272.12 C 317.06 273.27 317.13 269.18 316.27 267.41 C 313.48 268.31 310.56 268.57 307.65 268.36 C 307.34 270.28 307.39 272.40 306.33 274.11 C 302.66 275.43 298.69 275.63 294.83 275.50 C 294.77 275.24 294.66 274.73 294.60 274.47 C 292.57 265.66 292.07 256.60 290.41 247.73 C 289.80 243.48 289.15 239.24 288.43 235.02 C 288.78 234.50 289.49 233.46 289.84 232.95 Z" fill="#7c433e" opacity="1.00" stroke="#7c433e" stroke-width="0.25"/>
<path d="M 88.60 235.51 C 100.83 227.86 118.61 231.28 126.88 243.17 C 129.04 246.24 129.00 250.13 129.30 253.72 C 132.98 251.92 136.29 249.46 139.82 247.37 C 139.72 247.84 139.50 248.78 139.40 249.25 C 135.09 264.64 130.46 279.96 125.69 295.22 C 119.05 316.56 113.09 338.12 106.35 359.43 C 100.66 354.52 94.88 349.70 89.22 344.75 C 87.90 343.88 86.75 342.32 85.05 342.36 C 77.72 348.23 71.04 354.99 63.13 360.13 C 57.38 355.51 51.91 350.55 45.92 346.24 C 41.70 349.17 38.04 352.78 33.94 355.87 C 30.58 358.66 26.86 361.10 23.95 364.40 L 22.83 365.65 C 17.10 362.10 12.08 357.47 6.16 354.18 C 4.12 355.92 2.01 357.58 0.00 359.35 L 0.00 313.73 C 7.58 309.58 17.56 308.88 24.81 314.11 C 24.60 315.45 24.41 316.79 24.23 318.13 C 25.52 317.97 26.42 317.16 27.10 316.11 C 26.62 315.59 25.65 314.56 25.16 314.04 C 25.92 313.59 27.45 312.69 28.21 312.25 C 28.48 312.94 29.03 314.33 29.30 315.02 C 30.61 315.02 31.93 315.00 33.24 314.99 C 31.90 312.65 29.85 310.85 27.12 310.38 C 25.98 305.74 25.74 300.86 26.48 296.13 C 27.67 290.66 31.45 286.05 35.96 282.88 C 41.15 279.27 47.86 278.79 53.94 279.83 C 53.51 280.42 52.66 281.58 52.23 282.17 C 55.91 280.06 59.59 277.41 63.94 277.07 C 66.53 276.71 68.68 278.33 70.74 279.62 C 70.22 280.27 69.17 281.57 68.64 282.22 C 69.69 282.64 70.73 283.05 71.78 283.47 C 71.73 282.69 71.63 281.14 71.58 280.36 C 74.01 278.53 76.23 276.28 79.09 275.15 C 81.84 275.11 84.28 276.59 86.78 277.52 C 86.07 276.46 85.37 275.40 84.66 274.34 C 85.28 273.09 85.88 271.83 86.45 270.57 C 85.14 271.45 84.13 272.66 83.24 273.96 C 78.49 273.80 76.39 268.62 75.45 264.67 C 72.53 253.38 78.56 241.08 88.60 235.51 Z" fill="#ffffff" opacity="1.00" stroke="#ffffff" stroke-width="0.25"/>
<path d="M 150.93 238.00 C 151.37 235.96 150.78 233.37 152.43 231.79 C 153.28 236.61 153.39 241.53 153.22 246.41 C 149.99 244.95 150.71 240.85 150.93 238.00 Z" fill="#7d4e3a" opacity="1.00" stroke="#7d4e3a" stroke-width="0.25"/>
<path d="M 371.31 238.69 C 374.10 236.30 377.14 233.72 381.00 233.48 C 386.86 233.09 392.92 235.88 396.36 240.67 C 401.16 247.13 401.02 258.56 393.11 262.52 C 394.45 263.59 395.80 264.67 397.17 265.71 C 399.12 265.45 400.79 266.37 402.30 267.50 C 403.82 267.38 405.40 266.63 406.91 267.19 C 410.28 268.68 414.05 270.18 415.40 273.96 C 416.18 273.45 416.96 272.95 417.75 272.45 C 415.68 270.60 413.47 268.91 411.12 267.44 C 413.38 262.31 416.97 257.23 422.75 255.87 C 434.12 252.35 447.05 263.09 445.23 274.94 C 444.88 280.25 441.46 284.62 437.45 287.82 C 440.81 288.59 444.08 289.73 447.15 291.31 C 445.49 292.64 444.00 294.18 442.85 295.98 C 446.87 295.31 449.71 291.41 453.99 291.80 C 458.04 292.04 461.80 294.16 464.20 297.41 C 465.95 297.83 465.49 295.79 465.50 294.81 C 462.63 293.25 456.77 291.82 458.63 287.45 C 460.87 277.06 473.99 272.05 483.04 276.92 C 487.95 279.48 491.02 284.64 492.01 289.97 C 491.24 290.94 490.10 291.50 489.14 292.24 C 490.02 293.23 490.90 294.22 491.79 295.22 C 491.77 294.38 491.74 292.70 491.72 291.87 C 495.36 293.35 499.35 294.91 501.58 298.35 C 502.97 300.59 501.15 302.85 500.28 304.87 C 502.53 305.06 503.40 303.61 504.16 301.82 C 507.00 300.61 509.37 303.12 512.00 303.27 L 512.00 357.62 C 509.64 356.03 507.27 354.45 504.90 352.88 C 498.81 357.75 492.65 362.56 486.89 367.83 C 484.21 365.99 481.51 364.21 478.84 362.36 C 472.63 366.34 467.10 371.28 461.04 375.47 C 451.44 367.96 441.67 360.65 432.52 352.59 C 428.80 349.62 425.39 346.23 421.48 343.51 C 420.11 342.29 418.82 344.00 417.73 344.72 C 413.59 348.21 409.70 352.03 405.06 354.86 C 403.87 350.86 402.78 346.84 401.61 342.84 C 399.74 336.17 397.92 329.49 396.03 322.83 C 393.05 312.52 390.37 302.13 387.19 291.88 C 384.00 280.83 380.51 269.87 377.13 258.88 C 375.10 252.17 373.60 245.31 371.31 238.69 Z" fill="#ffffff" opacity="1.00" stroke="#ffffff" stroke-width="0.25"/>
<path d="M 215.69 276.79 C 217.26 266.48 218.10 256.08 219.62 245.77 C 219.76 247.96 220.02 250.15 220.27 252.34 C 224.83 252.95 229.44 252.94 234.04 252.87 C 245.68 252.87 257.32 252.82 268.97 252.83 C 275.88 252.83 282.72 254.19 289.64 253.83 C 289.92 251.79 290.21 249.76 290.41 247.73 C 292.07 256.60 292.57 265.66 294.60 274.47 C 286.65 270.90 277.59 272.59 269.28 270.47 C 264.77 269.01 259.74 268.80 256.10 265.40 L 255.99 265.34 C 255.01 264.78 254.00 264.29 252.96 263.88 C 252.40 265.48 252.26 267.17 252.15 268.84 C 252.33 269.32 252.70 270.27 252.88 270.74 C 250.65 271.84 248.50 273.06 246.37 274.34 C 245.69 276.27 244.98 278.21 244.34 280.16 C 244.26 279.00 244.18 277.84 244.09 276.69 C 241.77 277.66 239.27 277.72 236.82 277.31 C 233.73 276.65 231.01 278.72 227.99 278.83 C 224.02 278.91 220.01 278.50 216.07 279.15 C 215.97 278.56 215.79 277.38 215.69 276.79 Z" fill="#603733" opacity="1.00" stroke="#603733" stroke-width="0.25"/>
<path d="M 139.40 249.25 C 141.67 248.60 143.95 247.98 146.25 247.47 C 144.43 258.42 141.45 269.12 139.24 279.99 C 138.74 282.82 138.02 285.61 137.46 288.44 C 133.58 290.77 129.71 293.14 125.69 295.22 C 130.46 279.96 135.09 264.64 139.40 249.25 Z" fill="#fab788" opacity="1.00" stroke="#fab788" stroke-width="0.25"/>
<path d="M 119.37 256.37 C 119.39 254.39 121.53 254.59 122.82 254.19 C 124.94 253.80 127.06 253.39 129.17 252.91 C 128.66 253.60 127.64 255.00 127.14 255.70 C 127.70 256.10 128.82 256.92 129.38 257.32 C 128.79 258.26 127.99 258.98 126.99 259.48 C 126.32 258.16 125.65 256.85 124.98 255.54 C 123.11 255.84 121.24 256.12 119.37 256.37 Z" fill="#95cdc6" opacity="1.00" stroke="#95cdc6" stroke-width="0.25"/>
<path d="M 164.15 254.49 C 169.95 257.38 176.81 257.87 182.06 261.86 C 181.27 262.89 180.50 263.94 179.77 265.02 C 182.44 265.02 183.28 261.51 185.94 261.74 C 187.81 262.38 189.53 263.38 191.24 264.35 C 191.23 264.74 191.20 265.51 191.19 265.90 C 189.68 273.48 187.08 280.79 185.30 288.31 C 183.93 294.03 182.55 299.75 181.09 305.44 C 180.81 306.46 180.52 307.47 180.24 308.49 C 177.95 302.63 176.41 296.51 174.36 290.56 C 171.02 278.52 167.41 266.56 164.15 254.49 Z" fill="#fefefe" opacity="1.00" stroke="#fefefe" stroke-width="0.25"/>
<path d="M 347.96 257.69 C 348.52 259.51 349.17 261.29 349.80 263.09 C 350.71 262.14 351.62 261.19 352.54 260.25 C 353.10 261.63 353.67 263.00 354.19 264.40 C 353.48 269.67 351.78 274.74 351.07 280.01 C 350.77 282.49 350.33 284.96 349.68 287.37 C 345.41 289.58 341.81 292.81 337.65 295.17 C 339.75 287.60 341.42 279.92 343.74 272.41 C 345.16 267.51 346.96 262.71 347.96 257.69 Z" fill="#fbb586" opacity="1.00" stroke="#fbb586" stroke-width="0.25"/>
<path d="M 184.51 259.75 C 187.26 259.73 190.00 259.97 192.74 260.29 C 192.56 260.81 192.22 261.85 192.04 262.38 C 189.53 261.72 186.03 262.30 184.51 259.75 Z" fill="#f4fbfa" opacity="1.00" stroke="#f4fbfa" stroke-width="0.25"/>
<path d="M 252.96 263.88 C 254.00 264.29 255.01 264.78 255.99 265.34 C 254.69 266.48 253.42 267.67 252.15 268.84 C 252.26 267.17 252.40 265.48 252.96 263.88 Z" fill="#34648f" opacity="1.00" stroke="#34648f" stroke-width="0.25"/>
<path d="M 256.10 265.40 C 259.74 268.80 264.77 269.01 269.28 270.47 C 277.59 272.59 286.65 270.90 294.60 274.47 C 294.66 274.73 294.77 275.24 294.83 275.50 C 296.26 282.42 297.17 289.50 296.87 296.59 C 288.27 291.38 277.88 292.92 268.35 293.54 C 267.29 286.92 264.55 280.78 263.00 274.29 C 261.24 273.03 259.30 272.05 257.24 271.36 C 256.89 269.37 256.51 267.38 256.10 265.40 Z" fill="#70453d" opacity="1.00" stroke="#70453d" stroke-width="0.25"/>
<path d="M 255.99 265.34 L 256.10 265.40 C 256.51 267.38 256.89 269.37 257.24 271.36 C 257.31 271.71 257.44 272.40 257.51 272.75 C 258.20 273.28 258.90 273.82 259.62 274.34 C 260.74 274.31 261.87 274.30 263.00 274.29 C 264.55 280.78 267.29 286.92 268.35 293.54 C 268.94 296.03 269.57 298.55 269.49 301.14 C 268.88 305.32 269.64 309.54 269.35 313.74 C 268.75 313.55 267.55 313.15 266.95 312.95 C 266.67 306.00 266.71 298.80 264.06 292.25 C 260.33 292.06 261.72 296.73 263.38 298.46 C 264.31 304.27 264.54 310.16 265.23 316.01 C 266.00 323.63 264.94 331.28 265.41 338.91 C 265.53 340.72 265.35 342.80 266.80 344.18 C 274.68 352.97 282.07 362.23 290.83 370.19 C 293.17 372.16 295.65 375.16 299.09 374.27 C 305.40 373.38 311.60 369.36 318.12 371.52 C 318.87 371.10 319.62 370.67 320.38 370.26 C 348.14 385.28 375.30 401.39 403.03 416.46 C 404.59 417.28 406.14 418.13 407.73 418.93 C 411.96 420.78 415.71 423.54 420.00 425.29 C 422.33 426.44 424.48 427.92 426.60 429.42 C 429.84 431.85 433.12 434.27 436.86 435.91 C 438.52 433.95 440.12 431.89 442.21 430.36 C 442.56 430.15 443.26 429.73 443.61 429.52 C 447.78 433.09 452.51 435.90 457.16 438.79 C 458.22 439.29 459.48 440.37 460.68 439.58 C 465.44 437.04 469.48 433.38 473.72 430.08 C 473.94 429.94 474.38 429.65 474.60 429.50 C 478.38 433.05 482.13 437.10 487.11 438.91 C 492.52 436.89 497.37 432.99 501.00 428.46 C 504.77 430.97 508.47 433.61 512.00 436.46 L 512.00 512.00 L 0.00 512.00 L 0.00 437.61 C 3.57 434.87 6.46 431.21 10.60 429.26 C 14.97 433.32 19.60 437.23 24.94 439.98 C 29.30 436.89 33.66 433.76 37.51 430.03 C 37.97 430.03 38.89 430.02 39.35 430.01 C 44.06 433.43 48.59 437.37 53.92 439.74 C 59.46 437.27 63.57 432.17 69.65 430.82 C 70.81 431.77 71.92 432.78 73.03 433.79 C 78.31 431.37 82.90 427.76 87.99 425.00 C 92.01 423.22 96.32 421.77 99.51 418.59 C 97.86 417.24 95.72 417.13 93.70 417.09 C 95.68 416.67 97.68 416.36 99.68 416.04 C 99.65 417.22 99.63 418.40 99.61 419.59 C 100.15 419.35 101.23 418.87 101.77 418.63 C 113.81 412.55 125.48 405.75 137.31 399.28 C 147.22 393.59 157.40 388.39 167.26 382.63 C 175.91 377.64 184.76 373.02 193.53 368.25 C 193.23 369.78 192.25 371.01 191.33 372.23 C 193.85 373.99 196.89 374.63 199.91 374.82 C 203.97 375.06 207.76 376.68 211.69 377.58 C 218.00 371.25 224.84 365.37 230.29 358.25 C 233.80 353.50 238.23 349.60 242.40 345.46 C 244.19 343.89 244.93 341.60 245.14 339.29 C 246.06 332.53 245.25 325.70 245.13 318.92 C 244.29 312.49 245.43 306.06 245.36 299.61 C 246.08 298.91 246.80 298.21 247.52 297.52 C 247.57 296.08 247.62 294.64 247.66 293.20 C 247.16 293.22 246.16 293.26 245.65 293.28 C 245.26 296.72 245.47 300.40 243.69 303.50 C 242.45 303.03 241.21 302.57 239.97 302.13 C 240.79 294.69 241.64 287.20 244.34 280.16 C 244.98 278.21 245.69 276.27 246.37 274.34 C 249.05 274.03 252.58 275.01 254.27 272.26 C 253.92 271.88 253.23 271.12 252.88 270.74 C 252.70 270.27 252.33 269.32 252.15 268.84 C 253.42 267.67 254.69 266.48 255.99 265.34 Z" fill="#131929" opacity="1.00" stroke="#131929" stroke-width="0.25"/>
<path d="M 307.65 268.36 C 310.56 268.57 313.48 268.31 316.27 267.41 C 317.13 269.18 317.06 273.27 319.95 272.12 C 323.48 287.54 327.81 302.83 329.99 318.53 C 327.18 316.16 323.31 316.72 320.09 315.36 C 317.52 314.33 314.77 313.38 311.96 313.80 C 308.03 314.41 304.62 316.60 301.16 318.43 C 299.80 317.48 298.37 316.60 296.69 316.40 C 290.83 307.24 280.41 301.25 269.49 301.14 C 269.57 298.55 268.94 296.03 268.35 293.54 C 277.88 292.92 288.27 291.38 296.87 296.59 C 297.17 289.50 296.26 282.42 294.83 275.50 C 298.69 275.63 302.66 275.43 306.33 274.11 C 307.39 272.40 307.34 270.28 307.65 268.36 Z" fill="#845146" opacity="1.00" stroke="#845146" stroke-width="0.25"/>
<path d="M 398.80 267.37 C 400.01 268.02 401.23 268.67 402.44 269.32 C 401.60 270.76 400.09 271.78 398.40 271.08 C 398.53 269.84 398.67 268.61 398.80 267.37 Z" fill="#a1cfd6" opacity="1.00" stroke="#a1cfd6" stroke-width="0.25"/>
<path d="M 246.37 274.34 C 248.50 273.06 250.65 271.84 252.88 270.74 C 253.23 271.12 253.92 271.88 254.27 272.26 C 252.58 275.01 249.05 274.03 246.37 274.34 Z" fill="#7bc0c5" opacity="1.00" stroke="#7bc0c5" stroke-width="0.25"/>
<path d="M 257.24 271.36 C 259.30 272.05 261.24 273.03 263.00 274.29 C 261.87 274.30 260.74 274.31 259.62 274.34 C 258.90 273.82 258.20 273.28 257.51 272.75 C 257.44 272.40 257.31 271.71 257.24 271.36 Z" fill="#fefefe" opacity="1.00" stroke="#fefefe" stroke-width="0.25"/>
<path d="M 236.82 277.31 C 239.27 277.72 241.77 277.66 244.09 276.69 C 244.18 277.84 244.26 279.00 244.34 280.16 C 241.64 287.20 240.79 294.69 239.97 302.13 C 234.61 301.56 229.21 303.12 224.29 305.13 C 219.87 306.98 214.31 305.98 210.82 309.81 C 211.64 305.24 211.93 300.61 212.68 296.03 C 213.62 289.61 214.06 283.10 215.69 276.79 C 215.79 277.38 215.97 278.56 216.07 279.15 C 220.01 278.50 224.02 278.91 227.99 278.83 C 231.01 278.72 233.73 276.65 236.82 277.31 Z" fill="#774941" opacity="1.00" stroke="#774941" stroke-width="0.25"/>
<path d="M 248.09 279.34 C 249.41 278.59 251.60 280.72 249.91 281.69 C 248.51 282.56 246.40 280.33 248.09 279.34 Z" fill="#fffffe" opacity="1.00" stroke="#fffffe" stroke-width="0.25"/>
<path d="M 361.92 301.20 C 365.73 293.97 369.64 286.80 373.29 279.49 C 373.89 281.31 374.49 283.14 375.09 284.96 C 376.84 296.96 379.33 308.83 381.27 320.80 C 381.00 322.72 380.65 324.63 380.30 326.53 C 376.24 323.79 371.42 325.83 366.97 325.98 C 362.87 326.44 358.72 326.07 354.62 326.47 C 351.65 327.18 348.68 328.01 345.59 327.82 C 344.56 328.86 343.54 329.94 342.23 330.63 C 344.54 316.18 347.14 301.78 349.68 287.37 C 350.33 284.96 350.77 282.49 351.07 280.01 C 355.87 286.37 358.43 294.09 361.92 301.20 Z" fill="#502c2c" opacity="1.00" stroke="#502c2c" stroke-width="0.25"/>
<path d="M 139.24 279.99 C 144.70 286.46 148.20 294.28 151.81 301.87 C 155.00 294.69 158.07 287.44 161.42 280.34 C 162.08 281.82 162.73 283.32 163.34 284.83 C 164.34 293.63 165.93 302.34 167.63 311.02 C 169.01 317.60 170.20 324.22 171.37 330.83 C 171.24 331.58 170.99 333.06 170.86 333.80 C 169.85 332.28 169.21 330.37 167.67 329.32 C 165.37 329.03 162.97 329.98 160.75 329.11 C 158.59 328.21 156.21 328.81 153.97 328.90 C 148.48 329.36 142.91 328.81 137.64 327.21 C 135.81 326.52 133.88 326.65 132.02 327.12 C 131.83 326.81 131.46 326.17 131.28 325.86 C 133.52 313.42 135.99 301.00 137.46 288.44 C 138.02 285.61 138.74 282.82 139.24 279.99 Z" fill="#502d2c" opacity="1.00" stroke="#502d2c" stroke-width="0.25"/>
<path d="M 163.34 284.83 C 165.80 287.05 168.56 288.90 171.28 290.79 C 172.05 290.74 173.59 290.62 174.36 290.56 C 176.41 296.51 177.95 302.63 180.24 308.49 L 180.54 309.27 C 176.71 308.27 172.75 308.54 168.85 308.78 C 168.55 309.34 167.94 310.46 167.63 311.02 C 165.93 302.34 164.34 293.63 163.34 284.83 Z" fill="#79443d" opacity="1.00" stroke="#79443d" stroke-width="0.25"/>
<path d="M 375.09 284.96 C 378.34 288.72 382.25 291.90 386.73 294.09 C 386.85 293.54 387.08 292.43 387.19 291.88 C 390.37 302.13 393.05 312.52 396.03 322.83 C 391.95 323.75 387.99 325.12 383.89 325.93 C 383.45 326.62 383.01 327.31 382.59 328.01 C 382.14 325.61 381.68 323.21 381.27 320.80 C 379.33 308.83 376.84 296.96 375.09 284.96 Z" fill="#78433d" opacity="1.00" stroke="#78433d" stroke-width="0.25"/>
<path d="M 337.65 295.17 C 341.81 292.81 345.41 289.58 349.68 287.37 C 347.14 301.78 344.54 316.18 342.23 330.63 C 341.63 333.51 341.01 336.40 340.63 339.33 L 340.40 338.62 C 339.67 336.40 337.24 335.57 335.82 333.88 C 333.49 331.10 330.60 328.89 328.10 326.27 C 327.56 326.08 326.49 325.69 325.95 325.50 C 326.62 325.32 327.97 324.96 328.64 324.79 C 329.13 322.80 329.64 320.82 330.27 318.88 C 333.11 311.10 334.54 302.87 337.65 295.17 Z" fill="#b26f60" opacity="1.00" stroke="#b26f60" stroke-width="0.25"/>
<path d="M 423.46 292.28 C 424.18 289.79 426.97 289.25 428.91 288.02 C 429.39 288.35 430.35 289.01 430.82 289.34 C 431.52 289.25 432.91 289.08 433.61 289.00 C 434.00 292.86 437.21 295.74 438.65 299.28 C 437.87 299.52 436.31 300.00 435.53 300.24 C 435.75 299.36 436.21 297.59 436.43 296.71 C 435.36 294.89 434.19 293.13 432.87 291.48 C 430.89 291.22 428.92 290.89 426.97 290.53 C 425.80 291.13 424.63 291.71 423.46 292.28 Z" fill="#7bc0c5" opacity="1.00" stroke="#7bc0c5" stroke-width="0.25"/>
<path d="M 125.69 295.22 C 129.71 293.14 133.58 290.77 137.46 288.44 C 135.99 301.00 133.52 313.42 131.28 325.86 C 130.29 330.86 129.47 335.89 128.52 340.90 C 127.50 345.53 126.53 350.17 125.62 354.82 C 124.87 358.15 124.12 361.48 123.54 364.85 C 122.56 368.77 122.01 372.78 122.11 376.83 C 123.40 377.20 124.68 377.59 125.97 377.96 C 123.41 377.91 120.85 378.28 118.42 379.08 C 117.26 377.65 115.89 376.06 113.84 376.29 C 109.37 376.48 104.01 375.67 100.92 379.69 C 100.86 379.23 100.75 378.29 100.70 377.82 C 102.65 371.71 104.33 365.52 106.35 359.43 C 113.09 338.12 119.05 316.56 125.69 295.22 Z" fill="#b37261" opacity="1.00" stroke="#b37261" stroke-width="0.25"/>
<path d="M 263.38 298.46 C 261.72 296.73 260.33 292.06 264.06 292.25 C 266.71 298.80 266.67 306.00 266.95 312.95 C 267.55 313.15 268.75 313.55 269.35 313.74 C 268.01 313.67 266.67 313.63 265.34 313.59 C 267.95 307.69 264.79 301.64 263.76 295.78 C 263.66 296.45 263.47 297.79 263.38 298.46 Z" fill="#c88e67" opacity="1.00" stroke="#c88e67" stroke-width="0.25"/>
<path d="M 202.76 293.77 C 206.13 293.18 210.99 292.01 212.68 296.03 C 211.93 300.61 211.64 305.24 210.82 309.81 C 210.14 313.45 209.50 317.11 209.20 320.82 C 212.37 320.54 215.61 320.61 218.59 321.86 C 220.96 319.27 224.63 319.19 227.44 317.46 C 231.38 313.28 235.07 308.60 240.54 306.34 C 240.49 307.76 240.46 309.18 240.42 310.61 C 241.20 310.73 242.76 310.96 243.54 311.08 C 243.52 313.09 243.54 315.11 243.56 317.13 C 241.19 319.33 239.18 321.91 238.05 324.97 C 235.58 323.08 232.59 321.28 229.38 322.50 C 223.18 324.46 217.54 328.35 213.29 333.26 C 210.11 336.69 211.31 341.65 211.40 345.87 C 211.21 345.65 210.83 345.21 210.64 345.00 C 210.50 340.76 211.61 335.32 207.57 332.51 C 201.60 327.70 193.45 329.09 186.44 329.92 C 186.61 330.74 186.97 332.37 187.14 333.18 C 182.68 325.93 183.64 317.00 180.54 309.27 L 180.24 308.49 C 180.52 307.47 180.81 306.46 181.09 305.44 C 183.75 305.47 183.80 302.26 184.78 300.45 C 187.36 300.49 190.32 301.32 192.56 299.62 C 195.86 297.49 199.39 295.76 202.76 293.77 Z" fill="#915b4f" opacity="1.00" stroke="#915b4f" stroke-width="0.25"/>
<path d="M 245.65 293.28 C 246.16 293.26 247.16 293.22 247.66 293.20 C 247.62 294.64 247.57 296.08 247.52 297.52 C 246.80 298.21 246.08 298.91 245.36 299.61 C 245.43 306.06 244.29 312.49 245.13 318.92 C 245.25 325.70 246.06 332.53 245.14 339.29 C 236.96 342.81 229.73 348.06 221.92 352.28 C 212.31 357.34 202.75 362.50 193.53 368.25 C 184.76 373.02 175.91 377.64 167.26 382.63 C 166.82 381.57 166.39 380.51 165.95 379.46 C 165.16 379.78 164.37 380.10 163.59 380.43 C 163.18 379.81 162.77 379.21 162.36 378.61 C 162.47 373.72 164.07 369.03 166.41 364.78 C 168.34 362.22 170.72 360.03 173.33 358.18 C 174.31 357.64 175.31 357.15 176.32 356.69 C 182.06 354.34 188.67 353.57 194.51 356.01 C 198.88 351.14 204.25 346.84 210.64 345.00 C 210.83 345.21 211.21 345.65 211.40 345.87 C 211.31 341.65 210.11 336.69 213.29 333.26 C 217.54 328.35 223.18 324.46 229.38 322.50 C 232.59 321.28 235.58 323.08 238.05 324.97 C 239.18 321.91 241.19 319.33 243.56 317.13 C 243.54 315.11 243.52 313.09 243.54 311.08 C 244.15 309.11 244.49 307.06 244.07 305.02 C 243.98 304.64 243.79 303.88 243.69 303.50 C 245.47 300.40 245.26 296.72 245.65 293.28 Z" fill="#fdd49e" opacity="1.00" stroke="#fdd49e" stroke-width="0.25"/>
<path d="M 263.76 295.78 C 264.79 301.64 267.95 307.69 265.34 313.59 C 266.67 313.63 268.01 313.67 269.35 313.74 C 269.64 309.54 268.88 305.32 269.49 301.14 C 280.41 301.25 290.83 307.24 296.69 316.40 C 298.88 320.87 299.95 325.88 299.20 330.84 C 302.03 327.00 307.04 326.50 311.27 325.22 C 316.08 323.72 321.10 324.85 325.95 325.50 C 326.49 325.69 327.56 326.08 328.10 326.27 C 325.39 337.50 322.15 348.67 317.43 359.24 C 322.24 362.29 328.27 364.12 331.45 369.17 C 332.76 368.09 334.04 366.97 335.29 365.82 C 342.62 358.57 354.54 357.42 363.43 362.42 C 365.58 363.78 367.60 365.37 369.44 367.15 C 371.16 369.11 372.61 371.31 373.73 373.67 C 374.48 376.32 374.76 379.05 375.02 381.78 C 377.87 381.52 380.78 381.44 383.58 382.22 C 387.95 384.66 390.67 388.94 392.59 393.43 C 398.12 390.91 404.61 391.40 410.01 394.00 C 413.82 395.84 416.33 399.40 418.87 402.64 C 419.31 403.27 419.74 403.91 420.18 404.56 C 417.34 407.35 414.13 409.74 410.62 411.64 C 407.95 413.01 405.45 414.67 403.03 416.46 C 375.30 401.39 348.14 385.28 320.38 370.26 C 306.74 362.63 292.90 355.38 279.39 347.53 C 274.64 344.79 270.30 341.40 265.41 338.91 C 264.94 331.28 266.00 323.63 265.23 316.01 C 264.54 310.16 264.31 304.27 263.38 298.46 C 263.47 297.79 263.66 296.45 263.76 295.78 Z" fill="#fbcf9b" opacity="1.00" stroke="#fbcf9b" stroke-width="0.25"/>
<path d="M 224.29 305.13 C 229.21 303.12 234.61 301.56 239.97 302.13 C 241.21 302.57 242.45 303.03 243.69 303.50 C 243.79 303.88 243.98 304.64 244.07 305.02 C 242.88 305.43 241.69 305.84 240.54 306.34 C 235.07 308.60 231.38 313.28 227.44 317.46 C 224.63 319.19 220.96 319.27 218.59 321.86 C 215.61 320.61 212.37 320.54 209.20 320.82 C 209.50 317.11 210.14 313.45 210.82 309.81 C 214.31 305.98 219.87 306.98 224.29 305.13 Z" fill="#88564c" opacity="1.00" stroke="#88564c" stroke-width="0.25"/>
<path d="M 240.54 306.34 C 241.69 305.84 242.88 305.43 244.07 305.02 C 244.49 307.06 244.15 309.11 243.54 311.08 C 242.76 310.96 241.20 310.73 240.42 310.61 C 240.46 309.18 240.49 307.76 240.54 306.34 Z" fill="#0d1425" opacity="1.00" stroke="#0d1425" stroke-width="0.25"/>
<path d="M 168.85 308.78 C 172.75 308.54 176.71 308.27 180.54 309.27 C 183.64 317.00 182.68 325.93 187.14 333.18 C 188.34 336.70 189.38 340.27 190.27 343.88 C 190.20 344.29 190.07 345.10 190.00 345.51 C 185.78 342.41 180.43 341.27 175.28 342.13 C 175.08 343.80 174.87 345.47 174.72 347.15 C 174.21 344.68 173.66 342.21 173.19 339.74 C 172.69 336.75 171.97 333.80 171.37 330.83 C 170.20 324.22 169.01 317.60 167.63 311.02 C 167.94 310.46 168.55 309.34 168.85 308.78 Z" fill="#865148" opacity="1.00" stroke="#865148" stroke-width="0.25"/>
<path d="M 255.74 307.22 C 256.39 313.20 259.02 318.87 258.71 324.98 C 260.64 329.45 261.39 334.46 261.47 339.32 C 257.42 338.37 253.24 338.45 249.12 338.64 C 248.58 333.20 251.47 328.34 251.95 323.03 C 252.30 317.55 254.77 312.57 255.74 307.22 Z" fill="#fedba1" opacity="1.00" stroke="#fedba1" stroke-width="0.25"/>
<path d="M 301.16 318.43 C 304.62 316.60 308.03 314.41 311.96 313.80 C 314.77 313.38 317.52 314.33 320.09 315.36 C 323.31 316.72 327.18 316.16 329.99 318.53 L 330.27 318.88 C 329.64 320.82 329.13 322.80 328.64 324.79 C 327.97 324.96 326.62 325.32 325.95 325.50 C 321.10 324.85 316.08 323.72 311.27 325.22 C 307.04 326.50 302.03 327.00 299.20 330.84 C 299.95 325.88 298.88 320.87 296.69 316.40 C 298.37 316.60 299.80 317.48 301.16 318.43 Z" fill="#905c4f" opacity="1.00" stroke="#905c4f" stroke-width="0.25"/>
<path d="M 381.27 320.80 C 381.68 323.21 382.14 325.61 382.59 328.01 C 383.46 332.72 384.34 337.42 385.31 342.10 C 385.04 342.46 384.50 343.18 384.23 343.55 C 377.47 343.44 370.69 343.68 363.95 342.98 C 356.38 343.06 348.86 341.57 341.29 342.37 C 341.07 341.35 340.84 340.34 340.63 339.33 C 341.01 336.40 341.63 333.51 342.23 330.63 C 343.54 329.94 344.56 328.86 345.59 327.82 C 348.68 328.01 351.65 327.18 354.62 326.47 C 358.72 326.07 362.87 326.44 366.97 325.98 C 371.42 325.83 376.24 323.79 380.30 326.53 C 380.65 324.63 381.00 322.72 381.27 320.80 Z" fill="#5a3330" opacity="1.00" stroke="#5a3330" stroke-width="0.25"/>
<path d="M 383.89 325.93 C 387.99 325.12 391.95 323.75 396.03 322.83 C 397.92 329.49 399.74 336.17 401.61 342.84 C 401.45 343.33 401.13 344.31 400.97 344.80 C 400.43 344.10 399.90 343.40 399.38 342.70 C 395.07 344.24 388.87 343.16 386.52 347.89 C 386.08 345.96 385.69 344.03 385.31 342.10 C 384.34 337.42 383.46 332.72 382.59 328.01 C 383.01 327.31 383.45 326.62 383.89 325.93 Z" fill="#834e44" opacity="1.00" stroke="#834e44" stroke-width="0.25"/>
<path d="M 128.52 340.90 C 129.47 335.89 130.29 330.86 131.28 325.86 C 131.46 326.17 131.83 326.81 132.02 327.12 C 133.88 326.65 135.81 326.52 137.64 327.21 C 142.91 328.81 148.48 329.36 153.97 328.90 C 156.21 328.81 158.59 328.21 160.75 329.11 C 162.97 329.98 165.37 329.03 167.67 329.32 C 169.21 330.37 169.85 332.28 170.86 333.80 C 170.99 333.06 171.24 331.58 171.37 330.83 C 171.97 333.80 172.69 336.75 173.19 339.74 C 173.02 341.05 172.84 342.37 172.65 343.69 C 158.19 343.96 143.71 341.83 129.30 343.61 C 129.10 342.93 128.71 341.58 128.52 340.90 Z" fill="#5c3431" opacity="1.00" stroke="#5c3431" stroke-width="0.25"/>
<path d="M 328.10 326.27 C 330.60 328.89 333.49 331.10 335.82 333.88 C 337.24 335.57 339.67 336.40 340.40 338.62 C 339.92 342.06 339.13 345.44 338.53 348.85 C 337.70 354.56 335.72 360.07 335.29 365.82 C 334.04 366.97 332.76 368.09 331.45 369.17 C 328.27 364.12 322.24 362.29 317.43 359.24 C 322.15 348.67 325.39 337.50 328.10 326.27 Z" fill="#b87867" opacity="1.00" stroke="#b87867" stroke-width="0.25"/>
<path d="M 186.44 329.92 C 193.45 329.09 201.60 327.70 207.57 332.51 C 211.61 335.32 210.50 340.76 210.64 345.00 C 204.25 346.84 198.88 351.14 194.51 356.01 C 192.86 352.05 191.45 348.00 190.27 343.88 C 189.38 340.27 188.34 336.70 187.14 333.18 C 186.97 332.37 186.61 330.74 186.44 329.92 Z" fill="#e4ad88" opacity="1.00" stroke="#e4ad88" stroke-width="0.25"/>
<path d="M 265.41 338.91 C 270.30 341.40 274.64 344.79 279.39 347.53 C 292.90 355.38 306.74 362.63 320.38 370.26 C 319.62 370.67 318.87 371.10 318.12 371.52 C 311.60 369.36 305.40 373.38 299.09 374.27 C 295.65 375.16 293.17 372.16 290.83 370.19 C 282.07 362.23 274.68 352.97 266.80 344.18 C 265.35 342.80 265.53 340.72 265.41 338.91 Z" fill="#192836" opacity="1.00" stroke="#192836" stroke-width="0.25"/>
<path d="M 340.40 338.62 L 340.63 339.33 C 340.84 340.34 341.07 341.35 341.29 342.37 C 348.86 341.57 356.38 343.06 363.95 342.98 C 370.69 343.68 377.47 343.44 384.23 343.55 C 384.50 343.18 385.04 342.46 385.31 342.10 C 385.69 344.03 386.08 345.96 386.52 347.89 C 386.85 349.25 387.16 350.61 387.46 351.98 C 387.21 352.40 386.70 353.26 386.45 353.68 C 379.62 353.15 372.89 351.42 365.99 352.01 C 357.08 352.72 348.22 350.61 339.32 351.56 C 339.12 350.88 338.73 349.53 338.53 348.85 C 339.13 345.44 339.92 342.06 340.40 338.62 Z" fill="#673e38" opacity="1.00" stroke="#673e38" stroke-width="0.25"/>
<path d="M 173.19 339.74 C 173.66 342.21 174.21 344.68 174.72 347.15 C 175.35 350.31 175.92 353.48 176.32 356.69 C 175.31 357.15 174.31 357.64 173.33 358.18 C 170.05 354.60 165.07 356.01 160.82 355.36 C 152.53 354.34 144.29 356.46 136.00 356.05 C 132.70 355.91 129.24 355.65 126.26 357.35 C 126.04 356.50 125.82 355.66 125.62 354.82 C 126.53 350.17 127.50 345.53 128.52 340.90 C 128.71 341.58 129.10 342.93 129.30 343.61 C 143.71 341.83 158.19 343.96 172.65 343.69 C 172.84 342.37 173.02 341.05 173.19 339.74 Z" fill="#6b4139" opacity="1.00" stroke="#6b4139" stroke-width="0.25"/>
<path d="M 221.92 352.28 C 229.73 348.06 236.96 342.81 245.14 339.29 C 244.93 341.60 244.19 343.89 242.40 345.46 C 238.23 349.60 233.80 353.50 230.29 358.25 C 227.32 357.19 224.24 356.49 221.11 356.12 C 221.89 355.51 222.68 354.90 223.47 354.30 C 222.95 353.62 222.44 352.94 221.92 352.28 Z" fill="#1f303e" opacity="1.00" stroke="#1f303e" stroke-width="0.25"/>
<path d="M 175.28 342.13 C 180.43 341.27 185.78 342.41 190.00 345.51 C 190.07 345.10 190.20 344.29 190.27 343.88 C 191.45 348.00 192.86 352.05 194.51 356.01 C 188.67 353.57 182.06 354.34 176.32 356.69 C 175.92 353.48 175.35 350.31 174.72 347.15 C 174.87 345.47 175.08 343.80 175.28 342.13 Z" fill="#915a4e" opacity="1.00" stroke="#915a4e" stroke-width="0.25"/>
<path d="M 386.52 347.89 C 388.87 343.16 395.07 344.24 399.38 342.70 C 399.90 343.40 400.43 344.10 400.97 344.80 C 401.13 344.31 401.45 343.33 401.61 342.84 C 402.78 346.84 403.87 350.86 405.06 354.86 C 405.22 355.42 405.55 356.53 405.72 357.09 C 404.60 358.37 403.69 360.26 401.76 360.40 C 397.93 360.78 394.07 360.05 390.24 360.50 C 390.16 361.16 389.99 362.49 389.90 363.16 C 389.73 362.80 389.38 362.08 389.20 361.72 C 388.52 358.49 388.17 355.20 387.46 351.98 C 387.16 350.61 386.85 349.25 386.52 347.89 Z" fill="#8f584c" opacity="1.00" stroke="#8f584c" stroke-width="0.25"/>
<path d="M 63.13 360.13 C 71.04 354.99 77.72 348.23 85.05 342.36 C 86.75 342.32 87.90 343.88 89.22 344.75 C 94.88 349.70 100.66 354.52 106.35 359.43 C 104.33 365.52 102.65 371.71 100.70 377.82 C 99.50 381.22 98.35 384.64 97.08 388.01 C 95.46 392.36 92.99 396.45 92.44 401.13 C 92.48 404.28 89.35 404.88 87.02 405.85 C 82.89 403.40 79.29 400.16 75.07 397.86 C 68.73 394.30 62.45 390.64 56.55 386.39 C 49.18 381.09 41.13 376.77 34.08 371.03 C 30.95 368.47 27.68 366.04 23.95 364.40 C 26.86 361.10 30.58 358.66 33.94 355.87 C 38.04 352.78 41.70 349.17 45.92 346.24 C 51.91 350.55 57.38 355.51 63.13 360.13 Z" fill="#f5bc8b" opacity="1.00" stroke="#f5bc8b" stroke-width="0.25"/>
<path d="M 417.73 344.72 C 418.82 344.00 420.11 342.29 421.48 343.51 C 425.39 346.23 428.80 349.62 432.52 352.59 C 441.67 360.65 451.44 367.96 461.04 375.47 C 448.14 386.17 432.73 393.42 420.18 404.56 C 419.74 403.91 419.31 403.27 418.87 402.64 C 419.19 400.99 418.64 399.38 418.08 397.87 C 414.93 389.72 413.21 381.13 410.36 372.89 C 408.82 367.62 407.18 362.38 405.72 357.09 C 405.55 356.53 405.22 355.42 405.06 354.86 C 409.70 352.03 413.59 348.21 417.73 344.72 Z" fill="#f5bd8e" opacity="1.00" stroke="#f5bd8e" stroke-width="0.25"/>
<path d="M 335.29 365.82 C 335.72 360.07 337.70 354.56 338.53 348.85 C 338.73 349.53 339.12 350.88 339.32 351.56 C 348.22 350.61 357.08 352.72 365.99 352.01 C 372.89 351.42 379.62 353.15 386.45 353.68 C 386.70 353.26 387.21 352.40 387.46 351.98 C 388.17 355.20 388.52 358.49 389.20 361.72 C 383.00 359.68 376.39 360.83 369.99 360.48 C 367.60 360.20 365.44 361.31 363.43 362.42 C 354.54 357.42 342.62 358.57 335.29 365.82 Z" fill="#734740" opacity="1.00" stroke="#734740" stroke-width="0.25"/>
<path d="M 193.53 368.25 C 202.75 362.50 212.31 357.34 221.92 352.28 C 222.44 352.94 222.95 353.62 223.47 354.30 C 222.68 354.90 221.89 355.51 221.11 356.12 C 224.24 356.49 227.32 357.19 230.29 358.25 C 224.84 365.37 218.00 371.25 211.69 377.58 C 207.76 376.68 203.97 375.06 199.91 374.82 C 196.89 374.63 193.85 373.99 191.33 372.23 C 192.25 371.01 193.23 369.78 193.53 368.25 Z" fill="#162534" opacity="1.00" stroke="#162534" stroke-width="0.25"/>
<path d="M 486.89 367.83 C 492.65 362.56 498.81 357.75 504.90 352.88 C 507.27 354.45 509.64 356.03 512.00 357.62 L 512.00 406.19 C 509.40 408.14 506.73 410.01 503.95 411.68 C 502.92 412.27 501.86 412.81 500.85 413.40 C 496.24 410.45 492.24 406.20 487.14 404.23 C 483.04 406.32 479.37 409.20 476.17 412.49 L 475.21 412.07 C 472.84 412.33 470.93 411.15 469.38 409.49 C 466.88 407.08 463.90 405.27 460.99 403.41 C 455.99 406.28 451.62 410.14 446.41 412.64 C 445.17 411.89 443.94 411.16 442.72 410.42 C 439.14 408.39 436.39 405.24 432.91 403.09 C 425.56 405.01 420.11 411.65 412.52 413.17 C 412.05 412.79 411.10 412.02 410.62 411.64 C 414.13 409.74 417.34 407.35 420.18 404.56 C 432.73 393.42 448.14 386.17 461.04 375.47 C 467.10 371.28 472.63 366.34 478.84 362.36 C 481.51 364.21 484.21 365.99 486.89 367.83 Z" fill="#cf957c" opacity="1.00" stroke="#cf957c" stroke-width="0.25"/>
<path d="M 0.00 359.35 C 2.01 357.58 4.12 355.92 6.16 354.18 C 12.08 357.47 17.10 362.10 22.83 365.65 L 23.95 364.40 C 27.68 366.04 30.95 368.47 34.08 371.03 C 41.13 376.77 49.18 381.09 56.55 386.39 C 62.45 390.64 68.73 394.30 75.07 397.86 C 79.29 400.16 82.89 403.40 87.02 405.85 C 90.98 408.26 95.11 410.42 98.90 413.10 C 100.87 414.24 101.02 416.70 101.77 418.63 C 101.23 418.87 100.15 419.35 99.61 419.59 C 99.63 418.40 99.65 417.22 99.68 416.04 C 97.24 414.41 94.75 412.86 92.27 411.32 C 88.20 408.74 84.04 406.28 79.63 404.34 C 78.42 403.54 77.22 404.55 76.21 405.16 C 73.36 407.00 70.88 409.34 68.25 411.48 C 67.53 412.00 66.80 412.50 66.06 412.99 C 61.51 409.58 56.80 406.39 52.07 403.24 C 47.53 405.74 43.50 409.01 39.11 411.75 C 38.75 411.95 38.04 412.37 37.68 412.58 C 33.65 409.74 30.10 406.29 25.97 403.59 C 21.92 406.41 18.21 409.68 14.04 412.33 C 13.68 412.00 12.98 411.36 12.62 411.03 C 11.72 411.50 10.84 412.01 9.98 412.56 C 6.58 410.28 3.30 407.83 0.00 405.42 L 0.00 359.35 Z" fill="#cf947c" opacity="1.00" stroke="#cf947c" stroke-width="0.25"/>
<path d="M 123.54 364.85 C 124.12 361.48 124.87 358.15 125.62 354.82 C 125.82 355.66 126.04 356.50 126.26 357.35 C 129.24 355.65 132.70 355.91 136.00 356.05 C 144.29 356.46 152.53 354.34 160.82 355.36 C 165.07 356.01 170.05 354.60 173.33 358.18 C 170.72 360.03 168.34 362.22 166.41 364.78 C 163.29 365.29 160.13 365.44 156.99 365.08 C 153.83 364.32 151.39 366.75 148.60 367.68 C 144.35 365.88 139.38 365.87 135.36 368.27 C 131.78 367.20 127.75 364.72 124.24 367.31 C 124.00 366.49 123.77 365.66 123.54 364.85 Z" fill="#794d43" opacity="1.00" stroke="#794d43" stroke-width="0.25"/>
<path d="M 405.72 357.09 C 407.18 362.38 408.82 367.62 410.36 372.89 C 410.30 373.27 410.17 374.03 410.10 374.41 C 404.43 372.60 398.33 371.90 392.53 373.59 C 392.77 376.25 392.90 378.92 392.96 381.60 C 389.81 380.86 386.46 380.32 383.58 382.22 C 380.78 381.44 377.87 381.52 375.02 381.78 C 374.76 379.05 374.48 376.32 373.73 373.67 C 378.77 372.41 383.68 374.25 388.65 374.64 C 392.78 373.44 390.98 367.99 390.35 364.93 C 390.24 364.49 390.02 363.60 389.90 363.16 C 389.99 362.49 390.16 361.16 390.24 360.50 C 394.07 360.05 397.93 360.78 401.76 360.40 C 403.69 360.26 404.60 358.37 405.72 357.09 Z" fill="#9b6556" opacity="1.00" stroke="#9b6556" stroke-width="0.25"/>
<path d="M 363.43 362.42 C 365.44 361.31 367.60 360.20 369.99 360.48 C 376.39 360.83 383.00 359.68 389.20 361.72 C 389.38 362.08 389.73 362.80 389.90 363.16 C 390.02 363.60 390.24 364.49 390.35 364.93 C 390.19 365.60 389.89 366.93 389.73 367.59 C 382.95 367.32 376.07 364.21 369.44 367.15 C 367.60 365.37 365.58 363.78 363.43 362.42 Z" fill="#7f5247" opacity="1.00" stroke="#7f5247" stroke-width="0.25"/>
<path d="M 156.99 365.08 C 160.13 365.44 163.29 365.29 166.41 364.78 C 164.07 369.03 162.47 373.72 162.36 378.61 C 161.70 378.63 161.05 378.66 160.40 378.69 C 157.46 374.12 153.75 369.78 148.60 367.68 C 151.39 366.75 153.83 364.32 156.99 365.08 Z" fill="#8a574d" opacity="1.00" stroke="#8a574d" stroke-width="0.25"/>
<path d="M 122.11 376.83 C 122.01 372.78 122.56 368.77 123.54 364.85 C 123.77 365.66 124.00 366.49 124.24 367.31 C 127.75 364.72 131.78 367.20 135.36 368.27 C 131.73 370.64 129.55 374.52 128.67 378.70 C 127.77 378.44 126.87 378.19 125.97 377.96 C 124.68 377.59 123.40 377.20 122.11 376.83 Z" fill="#88584e" opacity="1.00" stroke="#88584e" stroke-width="0.25"/>
<path d="M 390.35 364.93 C 390.98 367.99 392.78 373.44 388.65 374.64 C 383.68 374.25 378.77 372.41 373.73 373.67 C 372.61 371.31 371.16 369.11 369.44 367.15 C 376.07 364.21 382.95 367.32 389.73 367.59 C 389.89 366.93 390.19 365.60 390.35 364.93 Z" fill="#8d5c4f" opacity="1.00" stroke="#8d5c4f" stroke-width="0.25"/>
<path d="M 135.36 368.27 C 139.38 365.87 144.35 365.88 148.60 367.68 C 153.75 369.78 157.46 374.12 160.40 378.69 C 161.05 378.66 161.70 378.63 162.36 378.61 C 162.77 379.21 163.18 379.81 163.59 380.43 C 164.37 380.10 165.16 379.78 165.95 379.46 C 166.39 380.51 166.82 381.57 167.26 382.63 C 157.40 388.39 147.22 393.59 137.31 399.28 C 125.48 405.75 113.81 412.55 101.77 418.63 C 101.02 416.70 100.87 414.24 98.90 413.10 C 95.11 410.42 90.98 408.26 87.02 405.85 C 89.35 404.88 92.48 404.28 92.44 401.13 C 93.71 398.44 94.92 395.09 97.96 393.96 C 100.84 393.03 103.93 393.33 106.91 393.22 C 108.90 387.31 112.44 381.58 118.42 379.08 C 120.85 378.28 123.41 377.91 125.97 377.96 C 126.87 378.19 127.77 378.44 128.67 378.70 C 129.55 374.52 131.73 370.64 135.36 368.27 Z" fill="#fbcd9a" opacity="1.00" stroke="#fbcd9a" stroke-width="0.25"/>
<path d="M 392.53 373.59 C 398.33 371.90 404.43 372.60 410.10 374.41 C 410.17 374.03 410.30 373.27 410.36 372.89 C 413.21 381.13 414.93 389.72 418.08 397.87 C 418.64 399.38 419.19 400.99 418.87 402.64 C 416.33 399.40 413.82 395.84 410.01 394.00 C 404.61 391.40 398.12 390.91 392.59 393.43 C 390.67 388.94 387.95 384.66 383.58 382.22 C 386.46 380.32 389.81 380.86 392.96 381.60 C 392.90 378.92 392.77 376.25 392.53 373.59 Z" fill="#ac7462" opacity="1.00" stroke="#ac7462" stroke-width="0.25"/>
<path d="M 100.92 379.69 C 104.01 375.67 109.37 376.48 113.84 376.29 C 115.89 376.06 117.26 377.65 118.42 379.08 C 112.44 381.58 108.90 387.31 106.91 393.22 C 103.93 393.33 100.84 393.03 97.96 393.96 C 94.92 395.09 93.71 398.44 92.44 401.13 C 92.99 396.45 95.46 392.36 97.08 388.01 C 98.35 384.64 99.50 381.22 100.70 377.82 C 100.75 378.29 100.86 379.23 100.92 379.69 Z" fill="#ba7f6c" opacity="1.00" stroke="#ba7f6c" stroke-width="0.25"/>
<path d="M 412.52 413.17 C 420.11 411.65 425.56 405.01 432.91 403.09 C 436.39 405.24 439.14 408.39 442.72 410.42 C 438.12 413.60 433.54 416.83 428.77 419.76 C 426.86 420.87 424.90 421.89 423.04 423.07 C 422.00 423.78 420.99 424.52 420.00 425.29 C 415.71 423.54 411.96 420.78 407.73 418.93 C 409.25 416.95 410.83 415.01 412.52 413.17 Z" fill="#846455" opacity="1.00" stroke="#846455" stroke-width="0.25"/>
<path d="M 14.04 412.33 C 18.21 409.68 21.92 406.41 25.97 403.59 C 30.10 406.29 33.65 409.74 37.68 412.58 C 33.71 414.90 30.18 417.88 26.21 420.21 C 25.72 420.07 24.72 419.80 24.22 419.66 C 20.48 417.75 17.06 415.23 14.04 412.33 Z" fill="#84645a" opacity="1.00" stroke="#84645a" stroke-width="0.25"/>
<path d="M 39.11 411.75 C 43.50 409.01 47.53 405.74 52.07 403.24 C 56.80 406.39 61.51 409.58 66.06 412.99 C 62.31 415.14 58.69 417.51 55.01 419.77 C 53.91 420.32 52.78 420.82 51.68 421.38 C 47.89 417.64 42.90 415.49 39.11 411.75 Z" fill="#7e5f57" opacity="1.00" stroke="#7e5f57" stroke-width="0.25"/>
<path d="M 76.21 405.16 C 77.22 404.55 78.42 403.54 79.63 404.34 C 84.04 406.28 88.20 408.74 92.27 411.32 C 88.92 413.92 82.78 415.78 83.41 420.98 C 78.07 418.30 73.13 414.92 68.25 411.48 C 70.88 409.34 73.36 407.00 76.21 405.16 Z" fill="#7f605a" opacity="1.00" stroke="#7f605a" stroke-width="0.25"/>
<path d="M 446.41 412.64 C 451.62 410.14 455.99 406.28 460.99 403.41 C 463.90 405.27 466.88 407.08 469.38 409.49 C 470.29 410.67 471.11 411.90 471.97 413.14 C 468.01 415.55 464.06 418.00 460.46 420.92 C 459.48 420.51 458.50 420.15 457.54 419.75 C 453.68 417.60 450.18 414.91 446.41 412.64 Z" fill="#886356" opacity="1.00" stroke="#886356" stroke-width="0.25"/>
<path d="M 476.17 412.49 C 479.37 409.20 483.04 406.32 487.14 404.23 C 492.24 406.20 496.24 410.45 500.85 413.40 C 496.97 415.85 493.20 418.48 489.15 420.63 C 488.76 420.41 487.98 419.97 487.59 419.76 C 483.61 417.61 479.96 414.94 476.17 412.49 Z" fill="#816259" opacity="1.00" stroke="#816259" stroke-width="0.25"/>
<path d="M 0.00 405.42 C 3.30 407.83 6.58 410.28 9.98 412.56 C 6.83 414.89 3.48 416.91 0.00 418.70 L 0.00 405.42 Z" fill="#796660" opacity="1.00" stroke="#796660" stroke-width="0.25"/>
<path d="M 503.95 411.68 C 506.73 410.01 509.40 408.14 512.00 406.19 L 512.00 418.04 C 509.31 415.93 506.51 413.95 503.95 411.68 Z" fill="#7a6150" opacity="1.00" stroke="#7a6150" stroke-width="0.25"/>
<path d="M 471.97 413.14 C 471.11 411.90 470.29 410.67 469.38 409.49 C 470.93 411.15 472.84 412.33 475.21 412.07 L 476.17 412.49 C 479.96 414.94 483.61 417.61 487.59 419.76 C 483.68 423.52 479.20 426.63 474.60 429.50 C 474.38 429.65 473.94 429.94 473.72 430.08 C 469.53 426.70 464.94 423.87 460.46 420.92 C 464.06 418.00 468.01 415.55 471.97 413.14 Z" fill="#123d46" opacity="1.00" stroke="#123d46" stroke-width="0.25"/>
<path d="M 9.98 412.56 C 10.84 412.01 11.72 411.50 12.62 411.03 C 12.98 411.36 13.68 412.00 14.04 412.33 C 17.06 415.23 20.48 417.75 24.22 419.66 C 19.74 422.94 15.37 426.41 10.60 429.26 C 6.46 431.21 3.57 434.87 0.00 437.61 L 0.00 418.70 C 3.48 416.91 6.83 414.89 9.98 412.56 Z" fill="#0e3b44" opacity="1.00" stroke="#0e3b44" stroke-width="0.25"/>
<path d="M 92.27 411.32 C 94.75 412.86 97.24 414.41 99.68 416.04 C 97.68 416.36 95.68 416.67 93.70 417.09 C 91.39 418.82 89.59 421.12 87.54 423.13 C 86.16 422.40 84.79 421.69 83.41 420.98 C 82.78 415.78 88.92 413.92 92.27 411.32 Z" fill="#94695f" opacity="1.00" stroke="#94695f" stroke-width="0.25"/>
<path d="M 428.77 419.76 C 433.54 416.83 438.12 413.60 442.72 410.42 C 443.94 411.16 445.17 411.89 446.41 412.64 C 450.18 414.91 453.68 417.60 457.54 419.75 C 453.09 423.27 448.25 426.26 443.61 429.52 C 443.26 429.73 442.56 430.15 442.21 430.36 C 437.65 426.93 432.58 424.09 428.77 419.76 Z" fill="#113944" opacity="1.00" stroke="#113944" stroke-width="0.25"/>
<path d="M 37.68 412.58 C 38.04 412.37 38.75 411.95 39.11 411.75 C 42.90 415.49 47.89 417.64 51.68 421.38 C 47.39 423.99 43.24 426.84 39.35 430.01 C 38.89 430.02 37.97 430.03 37.51 430.03 C 33.92 426.55 29.70 423.80 26.21 420.21 C 30.18 417.88 33.71 414.90 37.68 412.58 Z" fill="#113741" opacity="1.00" stroke="#113741" stroke-width="0.25"/>
<path d="M 66.06 412.99 C 66.80 412.50 67.53 412.00 68.25 411.48 C 73.13 414.92 78.07 418.30 83.41 420.98 C 84.79 421.69 86.16 422.40 87.54 423.13 C 87.65 423.60 87.88 424.53 87.99 425.00 C 82.90 427.76 78.31 431.37 73.03 433.79 C 71.92 432.78 70.81 431.77 69.65 430.82 C 64.62 427.33 60.04 423.26 55.01 419.77 C 58.69 417.51 62.31 415.14 66.06 412.99 Z" fill="#103a43" opacity="1.00" stroke="#103a43" stroke-width="0.25"/>
<path d="M 403.03 416.46 C 405.45 414.67 407.95 413.01 410.62 411.64 C 411.10 412.02 412.05 412.79 412.52 413.17 C 410.83 415.01 409.25 416.95 407.73 418.93 C 406.14 418.13 404.59 417.28 403.03 416.46 Z" fill="#ab8074" opacity="1.00" stroke="#ab8074" stroke-width="0.25"/>
<path d="M 500.85 413.40 C 501.86 412.81 502.92 412.27 503.95 411.68 C 506.51 413.95 509.31 415.93 512.00 418.04 L 512.00 436.46 C 508.47 433.61 504.77 430.97 501.00 428.46 C 497.01 425.90 493.21 423.07 489.15 420.63 C 493.20 418.48 496.97 415.85 500.85 413.40 Z" fill="#153c45" opacity="1.00" stroke="#153c45" stroke-width="0.25"/>
<path d="M 87.54 423.13 C 89.59 421.12 91.39 418.82 93.70 417.09 C 95.72 417.13 97.86 417.24 99.51 418.59 C 96.32 421.77 92.01 423.22 87.99 425.00 C 87.88 424.53 87.65 423.60 87.54 423.13 Z" fill="#765c51" opacity="1.00" stroke="#765c51" stroke-width="0.25"/>
<path d="M 10.60 429.26 C 15.37 426.41 19.74 422.94 24.22 419.66 C 24.72 419.80 25.72 420.07 26.21 420.21 C 29.70 423.80 33.92 426.55 37.51 430.03 C 33.66 433.76 29.30 436.89 24.94 439.98 C 19.60 437.23 14.97 433.32 10.60 429.26 Z" fill="#0f2133" opacity="1.00" stroke="#0f2133" stroke-width="0.25"/>
<path d="M 51.68 421.38 C 52.78 420.82 53.91 420.32 55.01 419.77 C 60.04 423.26 64.62 427.33 69.65 430.82 C 63.57 432.17 59.46 437.27 53.92 439.74 C 48.59 437.37 44.06 433.43 39.35 430.01 C 43.24 426.84 47.39 423.99 51.68 421.38 Z" fill="#0e2133" opacity="1.00" stroke="#0e2133" stroke-width="0.25"/>
<path d="M 423.04 423.07 C 424.90 421.89 426.86 420.87 428.77 419.76 C 432.58 424.09 437.65 426.93 442.21 430.36 C 440.12 431.89 438.52 433.95 436.86 435.91 C 433.12 434.27 429.84 431.85 426.60 429.42 C 427.63 426.43 425.14 424.62 423.04 423.07 Z" fill="#0f2c37" opacity="1.00" stroke="#0f2c37" stroke-width="0.25"/>
<path d="M 443.61 429.52 C 448.25 426.26 453.09 423.27 457.54 419.75 C 458.50 420.15 459.48 420.51 460.46 420.92 C 464.94 423.87 469.53 426.70 473.72 430.08 C 469.48 433.38 465.44 437.04 460.68 439.58 C 459.48 440.37 458.22 439.29 457.16 438.79 C 452.51 435.90 447.78 433.09 443.61 429.52 Z" fill="#0d2232" opacity="1.00" stroke="#0d2232" stroke-width="0.25"/>
<path d="M 487.59 419.76 C 487.98 419.97 488.76 420.41 489.15 420.63 C 493.21 423.07 497.01 425.90 501.00 428.46 C 497.37 432.99 492.52 436.89 487.11 438.91 C 482.13 437.10 478.38 433.05 474.60 429.50 C 479.20 426.63 483.68 423.52 487.59 419.76 Z" fill="#102334" opacity="1.00" stroke="#102334" stroke-width="0.25"/>
<path d="M 420.00 425.29 C 420.99 424.52 422.00 423.78 423.04 423.07 C 425.14 424.62 427.63 426.43 426.60 429.42 C 424.48 427.92 422.33 426.44 420.00 425.29 Z" fill="#213b44" opacity="1.00" stroke="#213b44" stroke-width="0.25"/>
</svg>